<svg width="87" height="93" viewBox="0 0 87 93" fill="none" xmlns="http://www.w3.org/2000/svg">
<g clip-path="url(#clip0_284_487)">
<path d="M87 30.4918L82.3367 22.4333L69.0754 30.0562C66.9623 27.4426 64.5578 25.1194 61.7889 23.1593L69.7312 9.51054L61.6432 4.86417L53.6281 18.7307C50.495 17.4239 47.1432 16.4075 43.6457 15.9719V0H34.2462V15.9719C14.9372 18.2951 0 34.4122 0 54.2318C0 75.6487 17.4146 93 38.9095 93C60.4045 93 77.8191 75.6487 77.8191 54.2318C77.8191 48.3513 76.3618 42.9063 74.0302 37.9696L87 30.4918ZM39.1281 38.7682C43.4271 38.7682 46.8518 42.2529 46.8518 46.5363C46.8518 50.8197 43.3543 54.2318 39.1281 54.2318C34.902 54.2318 31.4045 50.7471 31.4045 46.5363C31.4045 42.3255 34.902 38.7682 39.1281 38.7682ZM39.1281 70.2037C31.7688 70.2037 24.9925 66.8642 20.4749 60.9836L23.3894 58.8056C27.1784 63.7424 32.8618 66.5738 39.1281 66.5738C45.3945 66.5738 51.0779 63.7424 54.8668 58.8056L57.7814 60.9836C53.3367 66.8642 46.5603 70.2037 39.1281 70.2037Z" fill="#1F50AC"/>
</g>
<defs>
<clipPath id="clip0_284_487">
<rect width="87" height="93" fill="white"/>
</clipPath>
</defs>
</svg>
